<svg viewBox="0 0 800 800" xmlns="http://www.w3.org/2000/svg"><path d="M333.13377255416106,593.7165244487935 L282.4683251987303,555.4102688364592 M282.4683251987303,555.4102688364592 L240.12476405012447,524.2924281060523 M240.12476405012447,524.2924281060523 L209.1145353258685,498.833225990218 M209.1145353258685,498.833225990218 L191.65643656463573,477.1034831455634 M191.65643656463573,477.1034831455634 L189.0058572762801,456.90230027920643 M189.0058572762801,456.90230027920643 L201.36747605457606,435.91726216832575 M201.36747605457606,435.91726216832575 L227.8768390430701,411.88818711555393 M227.8768390430701,411.88818711555393 L266.6595008363971,382.76814854086314 M266.6595008363971,382.76814854086314 L314.9612658207754,346.87052308721525 M314.9612658207754,346.87052308721525 L369.34361941376443,302.9910943684787 M369.34361941376443,302.9910943684787 L418.726107519558,257.68190968735735 M418.726107519558,257.68190968735735 L467.1068742491224,205.76494143227774 M333.13377255416106,593.7165244487935 L199.31006790195633,670.8939236878757 M199.31006790195633,670.8939236878757 L188.67801206519707,650.2542837972142 M188.67801206519707,650.2542837972142 L193.06927965954338,630.068455139407 M193.06927965954338,630.068455139407 L212.19056165242432,608.0248725152298 M212.19056165242432,608.0248725152298 L244.69553193436536,581.9437334783192 M244.69553193436536,581.9437334783192 L288.28040597853834,549.9274526983054 M288.28040597853834,549.9274526983054 L339.8459868253596,510.50047355775735 M339.8459868253596,510.50047355775735 L395.7203415621975,462.7146781686995 M395.7203415621975,462.7146781686995 L451.92117973906124,406.21734877045367 M451.92117973906124,406.21734877045367 L504.4395326210902,341.277805594252 M504.4395326210902,341.277805594252 L549.5291661689016,268.76781829817656 M549.5291661689016,268.76781829817656 L580.266893069926,200.42064437512533 M580.266893069926,200.42064437512533 L601.228627033639,128.58869206054231 M467.1068742491224,205.76494143227774 L601.228627033639,128.58869206054231 M199.31006790195633,670.8939236878757 L466.957601082908,825.5061947239686 M466.957601082908,825.5061947239686 L517.6833356461564,758.499476077166 M517.6833356461564,758.499476077166 L560.0392095889608,684.2530318584185 M560.0392095889608,684.2530318584185 L591.0102921643447,604.302493901577 M591.0102921643447,604.302493901577 L608.3886862778843,520.6012477558584 M608.3886862778843,520.6012477558584 L610.9412530829416,435.35812650581863 M610.9412530829416,435.35812650581863 L598.4907021200677,350.88867100806743 M598.4907021200677,350.88867100806743 L571.92635536387,269.44640414647364 M571.92635536387,269.44640414647364 L533.1380547067533,193.0640672676289 M533.1380547067533,193.0640672676289 L484.88161054910864,123.41314188186846 M484.88161054910864,123.41314188186846 L430.5829042985879,61.685345163047316 M430.5829042985879,61.685345163047316 L381.2865726030392,14.812288579474398 M381.2865726030392,14.812288579474398 L332.9849966891578,-25.506194723968633 M601.228627033639,128.58869206054231 L332.9849966891578,-25.506194723968633 M466.957601082908,825.5061947239686 L600.7813056662733,748.1570994195826 M600.7813056662733,748.1570994195826 L611.321987934803,663.507751315133 M611.321987934803,663.507751315133 L606.8336472176522,578.3945501410303 M606.8336472176522,578.3945501410303 L587.6367142609834,495.1166944091724 M587.6367142609834,495.1166944091724 L555.0986896188745,415.8535126674285 M555.0986896188745,415.8535126674285 L511.5326314145337,342.48630438129914 M511.5326314145337,342.48630438129914 L460.0325158131983,276.4767554886744 M460.0325158131983,276.4767554886744 L404.25200949530506,218.76130524364618 M404.25200949530506,218.76130524364618 L348.14718949390226,169.68684224270612 M348.14718949390226,169.68684224270612 L295.7001818693339,128.98830385807355 M295.7001818693339,128.98830385807355 L250.63725588969712,95.80644322679518 M250.63725588969712,95.80644322679518 L219.88014384718193,71.92022121779002 M219.88014384718193,71.92022121779002 L198.8632438351864,51.49836114065408 M332.9849966891578,-25.506194723968633 L198.8632438351864,51.49836114065408 M600.7813056662733,748.1570994195826 L333.13377255416106,593.7165244487935 M198.8632438351864,51.49836114065408 L467.1068742491224,205.76494143227774" stroke="black"  stroke-width="4"  fill="red"/></svg>